<svg version="1.2" xmlns="http://www.w3.org/2000/svg" viewBox="0 0 1000 1000" width="1000" height="1000"><style>.a{fill:#ebebeb}.b{fill:#474F5A}.c{fill:#e0e0e0}.d{fill:#f5f5f5}.e{fill:#407bff}.f{fill:#fff}.g{fill:#263238}.h{opacity:.9;fill:#fff}.i{opacity:.1}.j{opacity:.4;fill:#fff}.k{opacity:.7;fill:#fff}.l{fill:#ebb376}.m{opacity:.2}.n{opacity:.6;fill:#fff}.o{fill:#d58745}</style><path class="a" d="m1000 765.3h-1000v-0.5h1000z"/><path class="a" d="m833.6 797h66.2v0.5h-66.2z"/><path class="a" d="m645.1 802.4h17.3v0.5h-17.3z"/><path class="a" d="m793.2 778.4h38.4v0.5h-38.4z"/><path class="a" d="m104.9 781.8h86.4v0.5h-86.4z"/><path class="a" d="m209.1 781.8h12.7v0.5h-12.7z"/><path class="a" d="m262.9 790.2h187.4v0.5h-187.4z"/><path fill-rule="evenodd" class="a" d="m474 675.6h-386.2c-6.3 0-11.4-5.1-11.4-11.4v-542.9c0-6.3 5.1-11.4 11.4-11.4h386.2c6.3 0 11.4 5.1 11.4 11.4v542.9c0 6.3-5.1 11.4-11.4 11.4zm-386.2-565.2c-6 0-10.9 4.9-10.9 10.9v542.9c0 6 4.9 10.9 10.9 10.9h386.2c6 0 10.9-4.9 10.9-10.9v-542.9c0-6-4.9-10.9-10.9-10.9z"/><path fill-rule="evenodd" class="a" d="m906.6 675.6h-386.2c-6.3 0-11.4-5.1-11.4-11.4v-542.9c0-6.3 5.1-11.4 11.4-11.4h386.2c6.3 0 11.4 5.1 11.4 11.4v542.9c0 6.3-5.1 11.4-11.4 11.4zm-386.2-565.2c-6 0-10.9 4.9-10.9 10.9v542.9c0 6 4.9 10.9 10.9 10.9h386.2c6 0 10.9-4.9 10.9-10.9v-542.9c0-6-4.9-10.9-10.9-10.9z"/><path fill-rule="evenodd" class="b" d="m298.4 517l-34.6-9.9 12.6-68.4 35.9 3.2c9-22.1 22-41.7 38-58.4l-17.6-31.5 57.3-39.5 23.2 27.7c21.2-8.9 44.2-14.1 68.1-14.6l9.8-34.6 68.5 12.6-3.2 35.9c22 9 41.7 22 58.3 37.9l31.6-17.5 39.4 57.3-27.7 23.2c9 21.2 14.1 44.2 14.6 68l34.7 9.9-12.7 68.4-35.8-3.2c-9 22.1-22.1 41.8-38 58.4l17.6 31.5-57.4 39.5-23.1-27.7c-21.3 8.9-44.3 14.1-68.1 14.6l-9.8 34.6-68.5-12.6 3.2-35.9c-22.1-9-41.7-22-58.4-37.9l-31.5 17.6-39.5-57.4 27.7-23.2c-8.9-21.2-14.1-44.2-14.6-68zm170 88.4c51.2 9.4 100.3-24.4 109.8-75.6 9.4-51.1-24.4-100.3-75.6-109.8-51.1-9.4-100.3 24.4-109.7 75.6-9.5 51.2 24.3 100.3 75.5 109.8z"/><path fill-rule="evenodd" class="b" d="m775.8 538.3c-7-2.8-13.2-6.9-18.5-12l-9.9 5.6-12.5-18.1 8.7-7.4c-2.8-6.7-4.4-14-4.6-21.5l-10.9-3.1 4-21.6 11.3 1c2.8-7 7-13.2 12-18.5l-5.6-9.9 18.2-12.5 7.3 8.7c6.7-2.8 14-4.4 21.5-4.6l3.1-10.9 21.7 4-1 11.3c6.9 2.9 13.1 7 18.4 12l10-5.5 12.4 18.1-8.7 7.3c2.8 6.7 4.4 14 4.6 21.5l11 3.1-4 21.7-11.4-1c-2.8 6.9-6.9 13.1-12 18.4l5.6 10-18.2 12.5-7.3-8.8c-6.7 2.8-14 4.4-21.5 4.6l-3.1 11-21.6-4zm16.9-25.5c16.2 3 31.8-7.7 34.7-23.9 3-16.2-7.7-31.7-23.8-34.7-16.2-3-31.8 7.7-34.7 23.9-3 16.2 7.7 31.7 23.8 34.7z"/><path fill-rule="evenodd" class="b" d="m168.2 602.7c-5.3-2.2-10.1-5.4-14.1-9.2l-7.6 4.2-9.5-13.8 6.7-5.5c-2.2-5.2-3.4-10.7-3.5-16.4l-8.4-2.4 3.1-16.5 8.6 0.8c2.2-5.3 5.3-10.1 9.2-14.1l-4.3-7.6 13.8-9.5 5.6 6.7c5.1-2.1 10.7-3.4 16.4-3.5l2.4-8.4 16.5 3.1-0.8 8.6c5.3 2.2 10 5.3 14 9.2l7.6-4.3 9.5 13.8-6.6 5.6c2.1 5.1 3.4 10.7 3.5 16.4l8.3 2.4-3 16.5-8.7-0.8c-2.1 5.3-5.3 10-9.1 14.1l4.2 7.5-13.8 9.5-5.6-6.6c-5.1 2.1-10.6 3.4-16.3 3.5l-2.4 8.3-16.5-3zm12.9-19.4c12.4 2.3 24.2-5.9 26.5-18.2 2.2-12.3-5.9-24.2-18.2-26.4-12.3-2.3-24.2 5.8-26.5 18.2-2.2 12.3 5.9 24.1 18.2 26.4z"/><path fill-rule="evenodd" class="b" d="m462.3 237.5c-4-1.6-7.6-4-10.6-6.9l-5.8 3.2-7.2-10.5 5.1-4.2c-1.7-3.8-2.6-8-2.7-12.4l-6.3-1.8 2.3-12.4 6.5 0.5c1.7-4 4-7.6 7-10.6l-3.3-5.7 10.5-7.2 4.2 5c3.9-1.6 8.1-2.6 12.4-2.6l1.8-6.4 12.5 2.4-0.6 6.5c4 1.6 7.6 4 10.6 6.9l5.8-3.2 7.2 10.4-5.1 4.3c1.6 3.8 2.6 8 2.7 12.4l6.3 1.8-2.3 12.4-6.5-0.6c-1.7 4.1-4.1 7.6-7 10.7l3.2 5.7-10.4 7.2-4.2-5c-3.9 1.6-8.1 2.5-12.4 2.6l-1.8 6.3-12.5-2.3zm9.8-14.6c9.3 1.7 18.3-4.5 20-13.8 1.7-9.3-4.4-18.3-13.8-20-9.3-1.7-18.2 4.4-20 13.8-1.7 9.3 4.5 18.2 13.8 20z"/><path fill-rule="evenodd" class="b" d="m669.4 340c-2.7-1.1-5.1-2.7-7.1-4.6l-3.9 2.1-4.8-6.9 3.4-2.8c-1.1-2.6-1.7-5.4-1.8-8.3l-4.2-1.2 1.6-8.3 4.3 0.4c1.1-2.7 2.7-5.1 4.6-7.1l-2.1-3.9 7-4.8 2.8 3.4c2.6-1.1 5.4-1.7 8.3-1.8l1.1-4.2 8.4 1.6-0.4 4.3c2.7 1.1 5 2.7 7.1 4.6l3.8-2.1 4.8 7-3.4 2.8c1.1 2.6 1.7 5.4 1.8 8.2l4.2 1.2-1.5 8.4-4.4-0.4c-1.1 2.7-2.7 5-4.6 7.1l2.1 3.8-6.9 4.8-2.8-3.4c-2.6 1.1-5.4 1.7-8.3 1.8l-1.2 4.2-8.3-1.5zm6.5-9.8c6.2 1.1 12.2-3 13.3-9.2 1.2-6.2-2.9-12.2-9.1-13.3-6.3-1.2-12.2 2.9-13.4 9.1-1.1 6.3 3 12.2 9.2 13.4z"/><path fill-rule="evenodd" class="b" d="m285.9 239.8c-2.7-1.1-5.1-2.7-7.1-4.6l-3.8 2.1-4.8-7 3.3-2.8c-1.1-2.6-1.7-5.3-1.7-8.2l-4.2-1.2 1.5-8.4 4.3 0.4c1.1-2.6 2.7-5 4.7-7.1l-2.2-3.8 7-4.8 2.8 3.4c2.6-1.1 5.4-1.7 8.3-1.8l1.2-4.2 8.3 1.5-0.4 4.4c2.7 1.1 5.1 2.7 7.1 4.6l3.8-2.1 4.8 6.9-3.4 2.8c1.1 2.6 1.8 5.4 1.8 8.3l4.2 1.2-1.5 8.3-4.4-0.4c-1.1 2.7-2.6 5.1-4.6 7.1l2.2 3.9-7 4.8-2.8-3.4c-2.6 1.1-5.4 1.7-8.3 1.8l-1.2 4.2-8.3-1.6zm6.5-9.7c6.2 1.1 12.2-3 13.4-9.2 1.1-6.2-3-12.2-9.2-13.4-6.2-1.1-12.2 3-13.4 9.2-1.1 6.2 3 12.2 9.2 13.4z"/><path fill-rule="evenodd" class="b" d="m647.9 685.4l2.7-14.5 7.6 0.7c1.9-4.7 4.7-8.8 8-12.4l-3.7-6.7 12.2-8.3 4.9 5.8c4.5-1.8 9.4-2.9 14.4-3.1l2.1-7.3 14.5 2.7-0.7 7.6c4.7 1.9 8.9 4.7 12.4 8l6.7-3.7 8.4 12.2-5.9 4.9c1.9 4.5 3 9.4 3.1 14.4l7.3 2.1-2.7 14.5-7.6-0.7c-1.9 4.7-4.6 8.9-8 12.4l3.7 6.7-12.1 8.4-4.9-5.9c-4.6 1.9-9.4 3-14.5 3.1l-2.1 7.3-14.5-2.6 0.7-7.6c-4.7-2-8.9-4.7-12.4-8.1l-6.7 3.7-8.3-12.1 5.8-4.9c-1.9-4.5-2.9-9.4-3.1-14.5zm43.4 20.9c10.9 2 21.3-5.2 23.3-16.1 2-10.8-5.2-21.2-16-23.2-10.9-2-21.3 5.1-23.3 16-2 10.8 5.2 21.2 16 23.3z"/><path class="c" d="m780.9 601.4l-22.4 8.2 22.4 8.1v8.4l-32-12.2v-8.7l32-12.1z"/><path class="c" d="m804.9 576.6h9.3l-22.1 63.2h-9.3z"/><path class="c" d="m847.4 605.2v8.7l-31.9 12.2v-8.4l22.3-8.1-22.3-8.2v-8.3z"/><path class="c" d="m225.7 708.2c3.2 0.9 4.7 2.9 4.7 7.8v11.1c0 3.3 1.6 5.2 5 5.2h1.3v8.5h-4c-8.8 0-13.2-4.5-13.2-12.5v-12.6c0-2.3-1.2-3.3-3.1-3.3h-2.3v-8.5h2.3c1.9 0 3.1-1 3.1-3.3v-12.6c0-8 4.4-12.5 13.2-12.5h4v8.5h-1.3c-3.4 0-5 1.9-5 5.2v11.1c0 4.9-1.5 6.9-4.7 7.9z"/><path class="c" d="m281.1 703.9v8.5h-2.3c-1.9 0-3.1 1-3.1 3.3v12.6c0 8-4.4 12.5-13.1 12.5h-4.1v-8.5h1.3c3.4 0 5.1-1.9 5.1-5.2v-11.1c0-4.9 1.4-6.9 4.6-7.8-3.2-1-4.6-3-4.6-7.9v-11.1c0-3.3-1.7-5.2-5.1-5.2h-1.3v-8.5h4.1c8.7 0 13.1 4.5 13.1 12.5v12.6c0 2.3 1.2 3.3 3.1 3.3z"/><path class="c" d="m197 302.3c0-13.8 10.5-23.6 24.7-23.6 7.8 0 14.4 2.9 18.7 8.1l-6.8 6.2c-3-3.5-6.9-5.3-11.4-5.3-8.5 0-14.6 6-14.6 14.6 0 8.5 6.1 14.5 14.6 14.5 4.5 0 8.4-1.8 11.4-5.4l6.8 6.2c-4.3 5.3-10.9 8.2-18.8 8.2-14.1 0-24.6-9.8-24.6-23.5z"/><path class="c" d="m276.6 306.2h-11.3v11.1h-8.4v-11.1h-11.2v-7.9h11.2v-11.1h8.4v11.1h11.3z"/><path class="c" d="m315.9 306.2h-11.3v11.1h-8.3v-11.1h-11.3v-7.9h11.3v-11.1h8.3v11.1h11.3z"/><path class="c" d="m364.1 531.3l6.6-7.9c2.8 3.7 5.8 5.6 9.5 5.6 4.7 0 7.2-2.9 7.2-8.5v-24.3h-18v-9.5h29.8v33.2c0 12.6-6.4 18.8-18.4 18.8-6.9 0-13-2.6-16.7-7.4z"/><path class="c" d="m406.3 534.2l3.8-8.2c3.5 2.3 8.8 3.8 13.6 3.8 5.3 0 7.3-1.4 7.3-3.6 0-6.4-23.8 0.2-23.8-15.5 0-7.5 6.8-12.8 18.2-12.8 5.4 0 11.4 1.3 15.2 3.5l-3.8 8.1c-3.9-2.2-7.8-2.9-11.4-2.9-5.1 0-7.3 1.6-7.3 3.6 0 6.7 23.8 0.2 23.8 15.7 0 7.3-6.8 12.5-18.6 12.5-6.6 0-13.4-1.8-17-4.2z"/><path class="d" d="m887.8 832.5c0 12.5-173.6 22.6-387.8 22.6-214.2 0-387.8-10.1-387.8-22.6 0-12.5 173.6-22.7 387.8-22.7 214.2 0 387.8 10.2 387.8 22.7z"/><path class="e" d="m651.9 254.8h-59.7c-2.5 0-4.5-2.1-4.5-4.6v-59.6c0-2.6 2-4.6 4.5-4.6h59.7c2.5 0 4.5 2 4.5 4.6v59.6c0 2.5-2 4.6-4.5 4.6z"/><g style="opacity:.4"><path class="f" d="m651.9 254.8h-59.7c-2.5 0-4.5-2.1-4.5-4.6v-59.6c0-2.6 2-4.6 4.5-4.6h59.7c2.5 0 4.5 2 4.5 4.6v59.6c0 2.5-2 4.6-4.5 4.6z"/></g><path class="f" d="m612.8 216.8l-11.9 4.3 11.9 4.4v4.5l-17-6.5v-4.7l17-6.5z"/><path class="f" d="m625.6 203.5h5l-11.8 33.8h-5z"/><path class="f" d="m648.3 218.8v4.7l-17 6.5v-4.5l11.9-4.4-11.9-4.3v-4.5z"/><path class="g" d="m602.8 267.3v16.7h-3.9v-6.8h-7.6v6.8h-3.8v-16.7h3.8v6.6h7.6v-6.6z"/><path class="g" d="m610.2 270.5h-5.3v-3.2h14.5v3.2h-5.3v13.5h-3.9z"/><path class="g" d="m636.7 284v-10l-4.9 8.3h-1.7l-4.9-8.1v9.8h-3.7v-16.7h3.2l6.3 10.4 6.1-10.4h3.2l0.1 16.7z"/><path class="g" d="m644.3 267.3h3.9v13.6h8.4v3.1h-12.3z"/><g style="opacity:.6"><path class="f" d="m602.8 267.3v16.7h-3.9v-6.8h-7.6v6.8h-3.8v-16.7h3.8v6.6h7.6v-6.6z"/><path class="f" d="m610.2 270.5h-5.3v-3.2h14.5v3.2h-5.3v13.5h-3.9z"/><path class="f" d="m636.7 284v-10l-4.9 8.3h-1.7l-4.9-8.1v9.8h-3.7v-16.7h3.2l6.3 10.4 6.1-10.4h3.2l0.1 16.7z"/><path class="f" d="m644.3 267.3h3.9v13.6h8.4v3.1h-12.3z"/></g><path class="e" d="m798.9 291.4h-59.7c-2.5 0-4.5-2-4.5-4.5v-59.7c0-2.5 2-4.5 4.5-4.5h59.7c2.5 0 4.5 2 4.5 4.5v59.7c0 2.5-2 4.5-4.5 4.5z"/><g style="opacity:.4"><path class="f" d="m798.9 291.4h-59.7c-2.5 0-4.5-2-4.5-4.5v-59.7c0-2.5 2-4.5 4.5-4.5h59.7c2.5 0 4.5 2 4.5 4.5v59.7c0 2.5-2 4.5-4.5 4.5z"/></g><path class="f" d="m757.8 257c1.6 0.5 2.4 1.6 2.4 4v5.8c0 1.7 0.8 2.6 2.6 2.6h0.6v4.4h-2c-4.5 0-6.8-2.3-6.8-6.4v-6.5c0-1.1-0.6-1.7-1.6-1.7h-1.2v-4.4h1.2c1 0 1.6-0.5 1.6-1.6v-6.5c0-4.1 2.3-6.4 6.8-6.4h2v4.3h-0.6c-1.8 0-2.6 1-2.6 2.7v5.7c0 2.5-0.8 3.5-2.4 4z"/><path class="f" d="m786.3 254.8v4.4h-1.2c-1 0-1.6 0.6-1.6 1.7v6.5c0 4.1-2.3 6.4-6.8 6.4h-2v-4.4h0.6c1.8 0 2.6-0.9 2.6-2.6v-5.8c0-2.4 0.8-3.5 2.4-4-1.6-0.5-2.4-1.5-2.4-4v-5.7c0-1.7-0.8-2.7-2.6-2.7h-0.6v-4.3h2c4.5 0 6.8 2.3 6.8 6.4v6.5c0 1.1 0.6 1.6 1.6 1.6z"/><path class="g" d="m745.9 312.6c0-5.1 3.9-8.7 9.1-8.7 2.9 0 5.3 1.1 6.9 3l-2.5 2.3q-1.7-2-4.2-2c-3.1 0-5.4 2.2-5.4 5.4 0 3.1 2.3 5.3 5.4 5.3q2.5 0 4.2-2l2.5 2.3c-1.6 2-4 3-6.9 3-5.2 0-9.1-3.6-9.1-8.6z"/><path class="g" d="m763 319.3l1.3-2.9c1.5 1 3.6 1.7 5.6 1.7 2.2 0 3.2-0.8 3.2-1.8 0-3.1-9.7-1-9.7-7.2 0-2.8 2.3-5.2 7-5.2 2.1 0 4.3 0.5 5.8 1.5l-1.2 2.9c-1.5-0.8-3.1-1.3-4.6-1.3-2.3 0-3.2 0.9-3.2 1.9 0 3.1 9.7 1 9.7 7.1 0 2.8-2.3 5.2-7.1 5.2-2.6 0-5.3-0.8-6.8-1.9z"/><path class="g" d="m778.3 319.3l1.3-2.9c1.4 1 3.5 1.7 5.5 1.7 2.3 0 3.2-0.8 3.2-1.8 0-3.1-9.7-1-9.7-7.2 0-2.8 2.3-5.2 7-5.2 2.1 0 4.3 0.5 5.8 1.5l-1.2 2.9c-1.5-0.8-3.1-1.3-4.6-1.3-2.3 0-3.2 0.9-3.2 1.9 0 3.1 9.8 1 9.8 7.1 0 2.8-2.4 5.2-7.1 5.2-2.7 0-5.4-0.8-6.8-1.9z"/><g style="opacity:.6"><path class="f" d="m745.9 312.6c0-5.1 3.9-8.7 9.1-8.7 2.9 0 5.3 1.1 6.9 3l-2.5 2.3q-1.7-2-4.2-2c-3.1 0-5.4 2.2-5.4 5.4 0 3.1 2.3 5.3 5.4 5.3q2.5 0 4.2-2l2.5 2.3c-1.6 2-4 3-6.9 3-5.2 0-9.1-3.6-9.1-8.6z"/><path class="f" d="m763 319.3l1.3-2.9c1.5 1 3.6 1.7 5.6 1.7 2.2 0 3.2-0.8 3.2-1.8 0-3.1-9.7-1-9.7-7.2 0-2.8 2.3-5.2 7-5.2 2.1 0 4.3 0.5 5.8 1.5l-1.2 2.9c-1.5-0.8-3.1-1.3-4.6-1.3-2.3 0-3.2 0.9-3.2 1.9 0 3.1 9.7 1 9.7 7.1 0 2.8-2.3 5.2-7.1 5.2-2.6 0-5.3-0.8-6.8-1.9z"/><path class="f" d="m778.3 319.3l1.3-2.9c1.4 1 3.5 1.7 5.5 1.7 2.3 0 3.2-0.8 3.2-1.8 0-3.1-9.7-1-9.7-7.2 0-2.8 2.3-5.2 7-5.2 2.1 0 4.3 0.5 5.8 1.5l-1.2 2.9c-1.5-0.8-3.1-1.3-4.6-1.3-2.3 0-3.2 0.9-3.2 1.9 0 3.1 9.8 1 9.8 7.1 0 2.8-2.4 5.2-7.1 5.2-2.7 0-5.4-0.8-6.8-1.9z"/></g><path  d="m542.1 393.3h-245v-177.3h245z"/><path class="h" d="m542.1 393.3h-245v-177.3h245z"/><path class="i" d="m331.2 393.3h-34.1v-177.3h34.1z"/><path class="e" d="m542.1 232.5h-245v-16.5h245z"/><g style="opacity:.2"><path  d="m395.4 257.6h-44.6c-1.1 0-2-0.9-2-2 0-1.1 0.9-2 2-2h44.6c1.1 0 2 0.9 2 2 0 1.1-0.9 2-2 2z"/><path  d="m493.9 257.6h-86.6c-1.1 0-2-0.9-2-2 0-1.1 0.9-2 2-2h86.6c1.1 0 2 0.9 2 2 0 1.1-0.9 2-2 2z"/><path  d="m473.4 270.6h-116.6c-1.1 0-2-0.9-2-2 0-1.1 0.9-2 2-2h116.6c1.1 0 2 0.9 2 2 0 1.1-0.9 2-2 2z"/><path  d="m425.9 283.7h-75.1c-1.1 0-2-0.9-2-2 0-1.1 0.9-2 2-2h75.1c1.1 0 2 0.9 2 2 0 1.1-0.9 2-2 2z"/><path  d="m493.9 283.7h-53.8c-1.1 0-2-0.9-2-2 0-1.1 0.9-2 2-2h53.8c1.1 0 2 0.9 2 2 0 1.1-0.9 2-2 2z"/><path  d="m392.3 296.7h-41.5c-1.1 0-2-0.9-2-2 0-1.1 0.9-2 2-2h41.5c1.1 0 2 0.9 2 2 0 1.1-0.9 2-2 2z"/><path  d="m471 296.7h-65.3c-1.1 0-2-0.9-2-2 0-1.1 0.9-2 2-2h65.3c1.1 0 2 0.9 2 2 0 1.1-0.9 2-2 2z"/><path  d="m412.6 309.8h-55.8c-1.1 0-2-0.9-2-2 0-1.1 0.9-2 2-2h55.8c1.1 0 2 0.9 2 2 0 1.1-0.9 2-2 2z"/><path  d="m419.6 322.8h-62.8c-1.1 0-2-0.9-2-2 0-1.1 0.9-2 2-2h62.8c1.1 0 2 0.9 2 2 0 1.1-0.9 2-2 2z"/><path  d="m493.9 322.8h-64.1c-1.1 0-2-0.9-2-2 0-1.1 0.9-2 2-2h64.1c1.1 0 2 0.9 2 2 0 1.1-0.9 2-2 2z"/><path  d="m386.7 335.9h-35.9c-1.1 0-2-0.9-2-2 0-1.1 0.9-2 2-2h35.9c1.1 0 2 0.9 2 2 0 1.1-0.9 2-2 2z"/><path  d="m493.9 335.9h-94.9c-1.1 0-2-0.9-2-2 0-1.1 0.9-2 2-2h94.9c1.1 0 2 0.9 2 2 0 1.1-0.9 2-2 2z"/><path  d="m419.2 348.9h-62.4c-1.1 0-2-0.9-2-2 0-1.1 0.9-2 2-2h62.4c1.1 0 2 0.9 2 2 0 1.1-0.9 2-2 2z"/><path  d="m468.2 348.9h-40.3c-1.1 0-2-0.9-2-2 0-1.1 0.9-2 2-2h40.3c1.1 0 2 0.9 2 2 0 1.1-0.9 2-2 2z"/><path  d="m428.6 362h-71.8c-1.1 0-2-0.9-2-2 0-1.1 0.9-2 2-2h71.8c1.1 0 2 0.9 2 2 0 1.1-0.9 2-2 2z"/></g><path class="j" d="m528.1 224.4c0 1.9 1.6 3.4 3.5 3.4 1.9 0 3.4-1.5 3.4-3.4 0-1.9-1.5-3.5-3.4-3.5-1.9 0-3.5 1.6-3.5 3.5z"/><path class="j" d="m516.1 224.4c0 1.9 1.6 3.4 3.5 3.4 1.9 0 3.4-1.5 3.4-3.4 0-1.9-1.5-3.5-3.4-3.5-1.9 0-3.5 1.6-3.5 3.5z"/><path class="j" d="m504.1 224.4c0 1.9 1.6 3.4 3.5 3.4 1.9 0 3.4-1.5 3.4-3.4 0-1.9-1.5-3.5-3.4-3.5-1.9 0-3.5 1.6-3.5 3.5z"/><g style="opacity:.2"><path  d="m314.8 257.6h-0.1c-1.1 0-2-0.9-2-2 0-1.1 0.9-2 2-2 1.1 0 2 0.9 2 2 0 1.1-0.8 2-1.9 2z"/><path  d="m314.8 270.6h-0.1c-1.1 0-2-0.9-2-2 0-1.1 0.9-2 2-2 1.1 0 2 0.9 2 2 0 1.1-0.8 2-1.9 2z"/><path  d="m314.8 283.7h-0.1c-1.1 0-2-0.9-2-2 0-1.1 0.9-2 2-2 1.1 0 2 0.9 2 2 0 1.1-0.8 2-1.9 2z"/><path  d="m314.8 296.7h-0.1c-1.1 0-2-0.9-2-2 0-1.1 0.9-2 2-2 1.1 0 2 0.9 2 2 0 1.1-0.8 2-1.9 2z"/><path  d="m314.8 309.8h-0.1c-1.1 0-2-0.9-2-2 0-1.1 0.9-2 2-2 1.1 0 2 0.9 2 2 0 1.1-0.8 2-1.9 2z"/><path  d="m314.8 322.8h-0.1c-1.1 0-2-0.9-2-2 0-1.1 0.9-2 2-2 1.1 0 2 0.9 2 2 0 1.1-0.8 2-1.9 2z"/><path  d="m314.8 335.9h-0.1c-1.1 0-2-0.9-2-2 0-1.1 0.9-2 2-2 1.1 0 2 0.9 2 2 0 1.1-0.8 2-1.9 2z"/><path  d="m314.8 348.9h-0.1c-1.1 0-2-0.9-2-2 0-1.1 0.9-2 2-2 1.1 0 2 0.9 2 2 0 1.1-0.8 2-1.9 2z"/><path  d="m314.8 362h-0.1c-1.1 0-2-0.9-2-2 0-1.1 0.9-2 2-2 1.1 0 2 0.9 2 2 0 1.1-0.8 2-1.9 2z"/></g><path class="g" d="m764.1 566.3h-321.1v-205.6h321.1z"/><path class="h" d="m764.1 566.3h-321.1v-205.6h321.1z"/><path class="i" d="m493.1 566.3h-50.1v-205.6h50.1z"/><path class="e" d="m764.1 377.3h-321.1v-16.6h321.1z"/><path class="f" d="m465.7 395.4l-5.4 2 5.4 1.9v2l-7.6-2.9v-2.1l7.6-2.8z"/><path class="f" d="m471.4 389.5h2.2l-5.3 15.1h-2.2z"/><path class="f" d="m481.5 396.3v2.1l-7.6 2.9v-2l5.3-1.9-5.3-2v-1.9z"/><g style="opacity:.2"><path  d="m480.4 418.3h-21.8c-1.1 0-2-0.9-2-2 0-1.1 0.9-2 2-2h21.8c1.1 0 2 0.9 2 2 0 1.1-0.9 2-2 2z"/><path  d="m480.4 431.3h-21.8c-1.1 0-2-0.8-2-2 0-1.1 0.9-2 2-2h21.8c1.1 0 2 0.9 2 2 0 1.2-0.9 2-2 2z"/><path  d="m480.4 444.4h-21.8c-1.1 0-2-0.9-2-2 0-1.1 0.9-2 2-2h21.8c1.1 0 2 0.9 2 2 0 1.1-0.9 2-2 2z"/><path  d="m480.4 457.5h-21.8c-1.1 0-2-0.9-2-2 0-1.1 0.9-2 2-2h21.8c1.1 0 2 0.9 2 2 0 1.1-0.9 2-2 2z"/><path  d="m480.4 470.5h-21.8c-1.1 0-2-0.9-2-2 0-1.1 0.9-2 2-2h21.8c1.1 0 2 0.9 2 2 0 1.1-0.9 2-2 2z"/><path  d="m480.4 483.6h-21.8c-1.1 0-2-0.9-2-2 0-1.1 0.9-2 2-2h21.8c1.1 0 2 0.9 2 2 0 1.1-0.9 2-2 2z"/><path  d="m480.4 496.6h-21.8c-1.1 0-2-0.9-2-2 0-1.1 0.9-2 2-2h21.8c1.1 0 2 0.9 2 2 0 1.1-0.9 2-2 2z"/><path  d="m480.4 509.7h-21.8c-1.1 0-2-0.9-2-2 0-1.1 0.9-2 2-2h21.8c1.1 0 2 0.9 2 2 0 1.1-0.9 2-2 2z"/><path  d="m480.4 522.7h-21.8c-1.1 0-2-0.9-2-2 0-1.1 0.9-2 2-2h21.8c1.1 0 2 0.9 2 2 0 1.1-0.9 2-2 2z"/></g><path class="e" d="m543.3 418.3h-44.6c-1.1 0-2-0.9-2-2 0-1.1 0.9-2 2-2h44.6c1.1 0 2 0.9 2 2 0 1.1-0.9 2-2 2z"/><path class="g" d="m671.5 418.3h-116.3c-1.1 0-2-0.9-2-2 0-1.1 0.9-2 2-2h116.3c1.1 0 2 0.9 2 2 0 1.1-0.9 2-2 2z"/><g style="opacity:.2"><path class="g" d="m724.6 418.3h-33.7c-1.1 0-2-0.9-2-2 0-1.1 0.9-2 2-2h33.7c1.1 0 2 0.9 2 2 0 1.1-0.9 2-2 2z"/></g><g style="opacity:.2"><path class="g" d="m621.2 431.3h-116.5c-1.1 0-2-0.8-2-2 0-1.1 0.9-2 2-2h116.5c1.1 0 2 0.9 2 2 0 1.2-0.9 2-2 2z"/></g><path class="e" d="m740.6 431.3h-108.7c-1.1 0-2-0.8-2-2 0-1.1 0.9-2 2-2h108.7c1.1 0 2 0.9 2 2 0 1.2-0.9 2-2 2z"/><path class="g" d="m573.8 444.4h-69.1c-1.1 0-2-0.9-2-2 0-1.1 0.9-2 2-2h69.1c1.1 0 2 0.9 2 2 0 1.1-0.9 2-2 2z"/><path class="e" d="m656.1 444.4h-68.1c-1.1 0-2-0.9-2-2 0-1.1 0.9-2 2-2h68.1c1.1 0 2 0.9 2 2 0 1.1-0.9 2-2 2z"/><path class="g" d="m740.6 444.4h-73.5c-1.1 0-2-0.9-2-2 0-1.1 0.9-2 2-2h73.5c1.1 0 2 0.9 2 2 0 1.1-0.9 2-2 2z"/><path class="g" d="m580.2 457.5h-41.5c-1.1 0-2-0.9-2-2 0-1.1 0.9-2 2-2h41.5c1.1 0 2 0.9 2 2 0 1.1-0.9 2-2 2z"/><path class="g" d="m638.9 457.5h-45.3c-1.1 0-2-0.9-2-2 0-1.1 0.9-2 2-2h45.3c1.1 0 2 0.9 2 2 0 1.1-0.9 2-2 2z"/><g style="opacity:.2"><path class="g" d="m722.6 457.5h-73.4c-1.1 0-2-0.9-2-2 0-1.1 0.9-2 2-2h73.4c1.1 0 2 0.9 2 2 0 1.1-0.9 2-2 2z"/></g><g style="opacity:.2"><path class="g" d="m560.5 470.5h-55.8c-1.1 0-2-0.9-2-2 0-1.1 0.9-2 2-2h55.8c1.1 0 2 0.9 2 2 0 1.1-0.9 2-2 2z"/></g><path class="e" d="m567.4 483.6h-62.7c-1.1 0-2-0.9-2-2 0-1.1 0.9-2 2-2h62.7c1.1 0 2 0.9 2 2 0 1.1-0.9 2-2 2z"/><path class="g" d="m672.3 483.6h-94.6c-1.1 0-2-0.9-2-2 0-1.1 0.9-2 2-2h94.6c1.1 0 2 0.9 2 2 0 1.1-0.9 2-2 2z"/><path class="g" d="m740.6 483.6h-56.9c-1.1 0-2-0.9-2-2 0-1.1 0.9-2 2-2h56.9c1.1 0 2 0.9 2 2 0 1.1-0.9 2-2 2z"/><g style="opacity:.2"><path class="g" d="m560.6 496.6h-35.9c-1.1 0-2-0.9-2-2 0-1.1 0.9-2 2-2h35.9c1.1 0 2 0.9 2 2 0 1.1-0.9 2-2 2z"/></g><g style="opacity:.2"><path class="g" d="m641.8 496.6h-68.9c-1.1 0-2-0.9-2-2 0-1.1 0.9-2 2-2h68.9c1.1 0 2 0.9 2 2 0 1.1-0.9 2-2 2z"/></g><path class="g" d="m722.6 496.6h-67.3c-1.1 0-2-0.9-2-2 0-1.1 0.9-2 2-2h67.3c1.1 0 2 0.9 2 2 0 1.1-0.9 2-2 2z"/><path class="g" d="m587.1 509.7h-42.4c-1.1 0-2-0.9-2-2 0-1.1 0.9-2 2-2h42.4c1.1 0 2 0.9 2 2 0 1.1-0.9 2-2 2z"/><g style="opacity:.2"><path class="g" d="m636.1 509.7h-40.3c-1.1 0-2-0.9-2-2 0-1.1 0.9-2 2-2h40.3c1.1 0 2 0.9 2 2 0 1.1-0.9 2-2 2z"/></g><path class="e" d="m722.6 509.7h-73.8c-1.1 0-2-0.9-2-2 0-1.1 0.9-2 2-2h73.8c1.1 0 2 0.9 2 2 0 1.1-0.9 2-2 2z"/><g style="opacity:.2"><path class="g" d="m596.5 522.7h-51.8c-1.1 0-2-0.9-2-2 0-1.1 0.9-2 2-2h51.8c1.1 0 2 0.9 2 2 0 1.1-0.9 2-2 2z"/></g><path class="j" d="m750.1 369.1c0 1.9 1.5 3.4 3.4 3.4 1.9 0 3.4-1.5 3.4-3.4 0-1.9-1.5-3.4-3.4-3.4-1.9 0-3.4 1.5-3.4 3.4z"/><path class="j" d="m738.1 369.1c0 1.9 1.5 3.4 3.4 3.4 1.9 0 3.4-1.5 3.4-3.4 0-1.9-1.5-3.4-3.4-3.4-1.9 0-3.4 1.5-3.4 3.4z"/><path class="j" d="m726.1 369.1c0 1.9 1.5 3.4 3.4 3.4 1.9 0 3.4-1.5 3.4-3.4 0-1.9-1.5-3.4-3.4-3.4-1.9 0-3.4 1.5-3.4 3.4z"/><path class="e" d="m226.5 372.8h-57.4c-9.8 0-17.7 8-17.7 17.7v50c0 9.8 7.9 17.7 17.7 17.7h40.7l12 15.8v-15.8h4.7c9.8 0 17.7-7.9 17.7-17.7v-50c0-9.7-7.9-17.7-17.7-17.7z"/><path class="k" d="m226.5 372.8h-57.4c-9.8 0-17.7 8-17.7 17.7v50c0 9.8 7.9 17.7 17.7 17.7h40.7l12 15.8v-15.8h4.7c9.8 0 17.7-7.9 17.7-17.7v-50c0-9.7-7.9-17.7-17.7-17.7z"/><path class="e" d="m226.3 415.3c0 15.8-12.8 28.5-28.5 28.5-15.8 0-28.5-12.7-28.5-28.5 0-15.7 12.7-28.5 28.5-28.5 15.7 0 28.5 12.8 28.5 28.5z"/><path class="f" d="m194.8 428c-0.8 0-1.5-0.3-2-0.9l-11.2-13.2c-0.9-1.1-0.8-2.7 0.3-3.7 1.1-0.9 2.8-0.8 3.7 0.3l9.2 10.9 15.2-17.9c0.9-1.1 2.6-1.2 3.7-0.3 1.1 0.9 1.2 2.6 0.3 3.7l-17.2 20.2c-0.5 0.6-1.2 0.9-2 0.9z"/><path class="l" d="m409.4 727l43-2.1-4.2 37.3c0 0-29.8 5.7-43.1-15.5z"/><path class="l" d="m480.1 737.9l-9.8 27.1-22.1-2.8 4.2-37.3z"/><path class="e" d="m368.2 787.6c25.7-12.9 44.2-32.8 44.2-32.8l-3-27.8c-40.5 5.9-63.9 14.5-63.9 14.5 0 0 15-53.9 1.2-73.5l-37.7 6.8c0 0-40.2 83.5-13.2 112.8z"/><path class="k" d="m368.2 787.6c25.6-12.9 44.2-32.8 44.2-32.8l-3-27.9c-39.2 5.8-62.5 14.1-63.9 14.6 0.5-2 14.7-54.2 1.3-73.5l-37.8 6.8c0 0-11.9 24.8-18.4 52.1-5.4 22.8-7 47.4 5.3 60.7z"/><path class="m" d="m337.1 787.6c13.3-84.6 1.5-106 1.5-106l-48 45.3c-5.4 22.8-7 47.4 5.3 60.7z"/><path class="e" d="m328.8 787.6c9-42.8 19.1-109.6 17.9-119.6-1.6-14.5-80.3-76.5-148.7-31.4-13.9 9.3-21.1 108.7-23.6 151z"/><path class="k" d="m328.8 787.6c9-42.8 19.1-109.7 18-119.6-1.6-14.5-80.4-76.5-148.8-31.3-5 3.3-9.2 18.6-12.6 38.8-4.6 27.4-7.8 63.8-9.6 91.3-0.6 7.8-1 14.8-1.3 20.8z"/><path class="g" d="m295 453.1c-23.7-9.6-79.6 24.8-84.5 86.1-4.9 61.3 26.2 44.3 26.2 44.3 0 0 5.6 23.4 28.2 16.2 0 0 18.7 21.2 36.1 12.5 0 0 21.7 22.6 33.3 10.7 0 0 12.6 14.4 24.2 3.5 11.5-10.9 44.5-122.4-7.3-148.2-51.7-25.8-56.2-25.1-56.2-25.1z"/><path class="g" d="m295.1 703.9l-2.3-0.2c2.6-29.5-3.9-42.6-3.9-42.7l2-1c0.3 0.5 6.9 13.6 4.2 43.9z"/><path class="g" d="m305.8 704.3c-15.7-37 1.9-45.6 2.7-46l0.9 2.1-0.4-1 0.4 1c-0.1 0.1-16.3 8.2-1.5 43z"/><path class="e" d="m290.4 667.1c0 0-30.3-24-77.3-37.5l-15.1 7c0 0-25.3-31.3 16.9-41.6 42.2-10.2 99.6 18 114 42.2 14.5 24.3-25 32-25 32 0 0-3.7-4.9-13.5-2.1z"/><path class="n" d="m290.4 667.1c0 0-30.3-24-77.3-37.5l-15.1 7c0 0-25.3-31.3 16.9-41.6 42.2-10.2 99.6 18 114 42.2 14.5 24.3-25 32-25 32 0 0-3.7-4.9-13.5-2.1z"/><path class="f" d="m308.7 703.8c0 1.1-0.9 2-2 2-1.1 0-2-0.9-2-2 0-1.1 0.9-2 2-2 1.1 0 2 0.9 2 2z"/><path class="f" d="m295.7 703.8c0 1.1-0.9 2-2 2-1.1 0-2-0.9-2-2 0-1.1 0.9-2 2-2 1.1 0 2 0.9 2 2z"/><path class="l" d="m274.3 553.9c-1.8 21.5-8.4 59.7-25.8 68.1 0 0 19.5 4 49.9 42.6 17.4-12.1 10.8-20.4 10.8-20.4-20.3-13.3-15-29.7-6.8-44z"/><path class="m" d="m285.8 572.8l16.6 27.4c-2 3.4-3.8 6.9-5 10.4-8-4.3-16.8-17.8-15.1-27.1 0.8-4.6 2.2-8.9 3.5-10.7z"/><path class="l" d="m272 508.6c-5.6 33.7-8.7 47.9 3.8 69.6 18.8 32.6 60.4 34.2 75.7 3.3 13.8-27.8 20.6-78.3-8.1-100.6-28.3-21.9-65.9-6-71.4 27.7z"/><path class="g" d="m341.1 462.1c21.8 12.2 42.6 50 11.5 40.6-4.7 9.1-21.4 0.7-31.1-10.2-1.7 7.6-19.6 15.2-32.8 3.5 6.4 9.2-4.5 32.4-15.8 28.4-11.3-4-36.6-9.3-14.2-45.1 22.5-35.8 59-30.1 82.4-17.2z"/><path class="o" d="m333.1 540.4c0 0 2 13.4 5.8 20.7-4.3 2.4-10-0.8-10-0.8z"/><path class="g" d="m311.3 566.3q2 0.9 4.4 1.6c0.5 0.2 0.9-0.1 1-0.6 0.1-0.4-0.2-0.9-0.6-1-11.8-3.3-15.5-13.5-15.6-13.6-0.1-0.5-0.6-0.7-1-0.6-0.4 0.2-0.6 0.6-0.5 1.1 0.2 0.4 3.2 8.6 12.3 13.1z"/><path class="l" d="m255 532.9c2.1 7.7 7.3 13.6 12.7 16.6 8.2 4.4 14.1-3.2 13.4-12.7-0.6-8.6-5.6-21.2-14.5-21.7-8.8-0.5-14 8.9-11.6 17.8z"/><path class="g" d="m309 509.5c0.4 0.2 0.9 0.2 1.3 0 6.3-3.4 11.6-0.3 11.6-0.2 0.8 0.4 1.8 0.2 2.2-0.6 0.4-0.8 0.1-1.9-0.7-2.4-0.2-0.1-6.9-4.1-14.7 0.1-0.8 0.4-1 1.4-0.6 2.3 0.2 0.4 0.5 0.7 0.9 0.8z"/><path class="g" d="m362.7 522.7c0.4 0.2 0.8 0.3 1.2 0.1 0.9-0.2 1.3-1.2 1.1-2.1-2.9-9.1-10.1-11.5-10.5-11.6-0.8-0.2-1.7 0.3-1.9 1.2-0.2 0.9 0.3 1.8 1.1 2.1 0.3 0.1 5.9 2 8.2 9.3 0.1 0.4 0.5 0.8 0.8 1z"/><path class="g" d="m319.8 531.6c-1 2.7-3.3 4.3-5 3.6-1.8-0.6-2.5-3.3-1.5-6 1-2.6 3.2-4.3 5-3.6 1.8 0.7 2.4 3.3 1.5 6z"/><path class="g" d="m317.5 525.5l6.7-0.2c0 0-4.7 3.8-6.7 0.2z"/><path class="g" d="m353.3 542.3c-0.9 2.6-3.2 4.2-4.9 3.6-1.8-0.7-2.5-3.4-1.5-6 1-2.7 3.2-4.3 5-3.7 1.8 0.7 2.4 3.4 1.4 6.1z"/><path class="g" d="m351.1 536.1l6.6-0.1c0 0-4.6 3.8-6.6 0.1z"/><path fill-rule="evenodd" class="g" d="m316.6 550.5c-2 0-4.1-0.4-6-1.3-3.9-1.7-6.9-5.2-8.2-9.6-1.4-4.5-1-9.3 1-13.8 2-4.5 5.4-8 9.5-9.9 4.3-2 8.8-2.1 12.8-0.3 4 1.8 6.9 5.2 8.3 9.7 1.3 4.4 1 9.3-1 13.7-2 4.5-5.4 8-9.6 10-2.2 1-4.5 1.5-6.8 1.5zm3.1-33.9c-1.9 0-3.9 0.4-5.8 1.3-3.7 1.7-6.7 4.9-8.5 8.8-1.7 4-2.1 8.3-0.9 12.2 1.2 3.8 3.7 6.7 7.1 8.3 3.3 1.5 7.2 1.4 10.8-0.3 3.7-1.7 6.7-4.8 8.5-8.8 1.8-4 2.1-8.3 0.9-12.2-1.2-3.8-3.7-6.7-7-8.2-1.6-0.8-3.3-1.1-5.1-1.1z"/><path fill-rule="evenodd" class="g" d="m349.9 560.7c-2 0-4-0.4-5.9-1.3-4-1.7-7-5.2-8.3-9.6-1.4-4.5-1-9.3 1-13.8 2-4.5 5.4-8 9.6-9.9 4.2-2 8.7-2.1 12.7-0.3 4 1.8 6.9 5.2 8.3 9.7 1.4 4.4 1 9.3-1 13.7-3.2 7.1-9.8 11.5-16.4 11.5zm3.2-33.9c-2 0-4 0.4-5.9 1.3-3.7 1.7-6.7 4.9-8.4 8.8-1.8 4-2.1 8.3-0.9 12.2 1.1 3.8 3.6 6.7 7 8.3 7 3.1 15.7-1 19.3-9.1 1.8-4 2.1-8.3 0.9-12.2-1.1-3.8-3.7-6.7-7-8.2-1.6-0.7-3.3-1.1-5-1.1z"/><path class="g" d="m335.6 539.8c-0.2-0.4-0.4-0.5-0.6-0.6-0.8-0.3-2.1 0.2-2.6 0.4l-1-2.1c0.3-0.1 2.6-1.2 4.4-0.4 0.9 0.3 1.6 1 1.9 1.9z"/><path class="g" d="m303.6 528.5l-27-8.4 0.7-2.2 26.9 8.4z"/><path class="m" d="m274.6 728.9c0 0-52.7 40.3-98.8 37.9 1.8-27.5 5-63.9 9.6-91.3 4.7-5.2 7.8-8.4 7.8-8.4l28.1 20.9-6.9 8.6c0 0 42.4-2.2 57.2 0z"/><path class="l" d="m280 696.6l42.1-8.6 1.5 37.6c0 0-28.6 10.1-44.9-8.8z"/><path class="l" d="m351.4 696.7l-5.5 28.3-22.3 0.6-1.5-37.6z"/><path class="e" d="m280 696.6l2.1 29-10.5 4.7-4.5-33.7z"/><path class="n" d="m280 696.6l2.1 29-10.5 4.7-4.5-33.7z"/><path class="e" d="m213.1 629.6c0 0-16.2 1.8-28.9 16.7-12.7 14.9-57.5 59.2-47.5 95.4 9.9 36.2 105.6 9.3 134.9-11.4l-4.5-33.7-66.3 4.9 20.4-13.5c14.1-39-8.1-58.4-8.1-58.4z"/><path class="k" d="m213.1 629.6c0 0-16.2 1.8-28.9 16.7-12.7 14.9-57.5 59.2-47.5 95.4 9.9 36.2 105.6 9.3 134.9-11.4l-4.5-33.7-66.3 4.9 20.4-13.5c14.1-39-8.1-58.4-8.1-58.4z"/><path class="e" d="m405.1 727.6l12.1-2v32.3l-9.6 1.6z"/><path class="n" d="m405.1 727.6l12.1-2v32.3l-9.6 1.6z"/><path class="e" d="m380.7 757.6c0-1.8 0.1-3.6 0.3-5.3l0.4-2.7-2.6 1.5-1.6 1c-0.5 0.1-1 0.4-1.5 0.5-1 0.4-2 0.4-2.8 0.1-0.8-0.3-1.6-0.8-2.3-1.6-0.6-0.8-1.2-1.9-1.5-2.7l-2.3-6.4-1.6 6.7c-0.2 0.7-0.3 1.4-0.4 2-0.1 0.7-0.4 1.3-0.6 1.9-0.5 1.1-1.1 2-1.8 2.5-0.8 0.5-1.8 0.5-3 0.3-1.2-0.3-2.5-0.9-3.6-1.6l-3.5-2.2 1.4 3.6c0.6 1.4 1.1 3 1.5 4.6 0.1 0.8 0.3 1.6 0.3 2.4 0 0.8 0 1.7-0.5 2.4 0.7-0.5 1.1-1.4 1.3-2.3q0.4-1.3 0.4-2.6 0-1.1-0.1-2.1 0.8 0.5 1.8 0.9c1.6 0.6 3.8 0.8 5.7-0.2 1.9-0.9 3-2.6 3.7-4.2q0.1-0.1 0.1-0.3c1 1.1 2.4 2.1 4 2.4 1.7 0.4 3.5 0.2 4.9-0.5 0.6-0.2 1.2-0.6 1.7-0.9q0 0.1 0 0.2 0.2 1.5 0.6 2.8c0.3 1 0.6 1.9 1 2.7 0.4 0.9 1 1.7 1.8 2.3-0.5-0.8-0.7-1.7-0.9-2.6q-0.2-1.3-0.3-2.6z"/><path class="e" d="m452.3 712.5c-1.3 0.1-3.1-0.1-4.6-0.5-1.6-0.5-3.2-1.3-4.4-2.1-1.2-0.9-2.3-2.1-3.2-3.5-0.9-1.3-1.7-2.9-2.1-4.3l-1.4-3.9-2.2 3.5c-0.9 1.4-2.2 2.9-3.4 4-1.3 1.1-2.8 1.8-4.1 1.8h-0.4c-0.2 0-0.4-0.1-0.6-0.1-0.5-0.1-0.9-0.2-1.3-0.3q-1.2-0.4-2.4-1.1c-1.5-0.8-3.1-2-4.3-3.2l-3.5-3.3 0.7 4.6c0.4 2.4 0.6 4.9 0.5 7.4-0.1 1.2-0.3 2.4-0.7 3.4q-0.7 1.5-2.4 1.4l-0.9-0.1 0.2 0.7q0.9 2.3 1.8 4.5-0.3-2-0.6-4l0.4 0.1c0.4 0 0.8-0.1 1.2-0.2 0.3-0.2 0.7-0.4 1-0.7q0.4-0.4 0.8-0.8c0.9-1.3 1.2-2.7 1.5-4q0.4-2.1 0.4-4.1 0 0 0-0.1 1 0.8 2.1 1.5c0.9 0.6 1.9 1.1 3 1.5 1.1 0.4 2 0.7 3.4 0.8 2.8 0 5-1.3 6.7-2.7q1.2-1 2.2-2.1 0.6 1 1.3 2c1.2 1.6 2.6 3.1 4.4 4.2 1.8 1.1 3.6 1.7 5.5 2.1 1.3 0.3 2.5 0.4 3.8 0.3-0.1 0.4-0.3 0.8-0.4 1.2-0.4 1.2-0.7 2.4-0.9 3.6-0.2 1.2-0.2 2.4-0.1 3.6 0.1 1.2 0.4 2.4 1 3.4-0.4-1.1-0.3-2.3-0.2-3.4q0.2-1.7 0.8-3.3c0.7-2.1 1.7-4.1 2.9-6.1l1.2-2.1z"/><path class="e" d="m151 830.6h701.4c4.9 0 8.9-3.9 8.9-8.8v-21.6h-719.2v21.6c0 4.9 4 8.8 8.9 8.8z"/><path class="m" d="m142.1 815.4h719.2v-15.2h-719.2z"/><path class="e" d="m127 804.1h749.4c4.7 0 8.6-3.8 8.6-8.5 0-4.8-3.9-8.6-8.6-8.6h-749.4c-4.7 0-8.6 3.8-8.6 8.6 0 4.7 3.9 8.5 8.6 8.5z"/><path class="g" d="m825.6 682.1l-21.9 99.2c-0.7 3.3-3.9 5.7-7.1 5.7h-119.5c-3.2 0-5.2-3-4.5-6.3l21.8-98.5c0.8-3.2 3.9-4.8 7.1-4.8h119.6c3.2 0 5.2 1.4 4.5 4.7z"/><path class="j" d="m825.6 682.1l-21.9 99.2c-0.7 3.3-3.9 5.7-7.1 5.7h-115.5c-3.2 0-5.2-3-4.5-6.3l21.9-98.5c0.7-3.2 3.9-4.8 7.1-4.8h115.5c3.2 0 5.2 1.4 4.5 4.7z"/><path class="e" d="m806.5 783.8l21.8-98.7c0.7-3.2-1.3-4.7-4.5-4.7h-115.5c-3.2 0-6.4 1.6-7.1 4.9l-22.1 99.8z"/><path class="j" d="m828.3 685.1l-11.5 52.1-10.3 46.6-68.2 0.7-59.2 0.6 22.1-99.8c0.8-3.3 3.9-4.9 7.1-4.9h115.5c3.2 0 5.2 1.5 4.5 4.7z"/><path class="m" d="m816.8 737.2l-10.3 46.6-68.2 0.7h-56.6l9.2-42.6c0.6-2.7 3-4.7 5.8-4.7z"/><path class="e" d="m818.8 743.7c-0.7-3.2-3.9-4.8-7.1-4.8h-115.5c-3.2 0-5.2 1.4-4.5 4.7l8.8 39.7h-19.5c-1 0-1.9 0.8-1.9 1.8 0 1 0.9 1.9 1.9 1.9h20.3 118.5 3.4c2.6 0 4.6-2.5 4-5.1z"/><path class="j" d="m818.8 743.7c-0.7-3.2-3.9-4.8-7.1-4.8h-115.5c-3.2 0-5.2 1.4-4.5 4.7l8.8 39.7h-19.5c-1 0-1.9 0.8-1.9 1.8 0 1 0.9 1.9 1.9 1.9h20.3 118.5 3.4c2.6 0 4.6-2.5 4-5.1z"/><path  d="m677.5 767.8h-6.7l-0.8 3.6h6.5z"/><path  d="m635.2 787.4h-19.3c-0.7 0-1.2-0.5-1.2-1.1 0-0.6 0.5-1.2 1.2-1.2h19.3c6.4 0 12.4-2.8 16.5-7.9 4.4-5.5 11.1-8.7 18.3-8.7h3.4c0.6 0 1.1 0.5 1.1 1.1 0 0.7-0.5 1.2-1.1 1.2h-3.4c-6.5 0-12.5 2.8-16.5 7.9-4.5 5.5-11.2 8.7-18.3 8.7z"/><path class="g" d="m313.6 773.3v8.3c0 3.8 4.5 5.4 8.3 5.4h293.1c3.7 0 8.2-1.6 8.2-5.4v-8.3z"/><path class="j" d="m313.6 773.3v8.3c0 3.8 4.5 5.4 8.3 5.4h293.1c3.7 0 8.2-1.6 8.2-5.4v-8.3z"/><path class="m" d="m413.4 773.3v8.3c0 3.8 4.5 5.4 8.3 5.4h193.3c3.7 0 8.2-1.6 8.2-5.4v-8.3z"/><path class="g" d="m672.2 614.7l-34.9 158.3c-1.1 5.2-6.2 9-11.3 9h-190.7c-5 0-8.3-4.8-7.1-10l34.8-157.1c1.2-5.1 6.3-7.7 11.4-7.7h190.6c5.1 0 8.4 2.3 7.2 7.5z"/><path class="j" d="m672.2 614.7l-34.9 158.3c-1.1 5.2-6.2 9-11.3 9h-184.2c-5.1 0-8.3-4.8-7.2-10l34.9-157.1c1.2-5.1 6.2-7.7 11.4-7.7h184.1c5.1 0 8.4 2.3 7.2 7.5z"/><path class="m" d="m578.2 695.1v0.1c0 13.5-14.5 24.5-25.2 24.5-10.6 0-16.9-11-13.9-24.5 3-13.3 13.6-24.1 24.1-24.6-3.1 13.6 3.4 24.6 14 24.6 0.3 0 1 0 1-0.1z"/></svg>