<svg xmlns="http://www.w3.org/2000/svg" x="0px" y="0px" width="512" height="512" viewBox="0 0 72 72">
<path d="M 27.949219 14 C 15.953219 14 14.011719 15.94075 14.011719 27.96875 L 14.011719 44.09375 C 14.011719 56.12075 15.953219 58.0625 27.949219 58.0625 L 44.025391 58.0625 C 56.021391 58.0625 57.962891 56.12175 57.962891 44.09375 L 57.962891 27.96875 C 57.962891 15.94075 56.020437 14 44.023438 14 L 27.949219 14 z M 28.210938 23.654297 L 29.576172 23.654297 L 30.943359 27.654297 L 32.310547 23.654297 L 33.677734 23.654297 L 31.626953 29.654297 L 31.626953 33.654297 L 30.261719 33.654297 L 30.261719 29.654297 L 28.210938 23.654297 z M 35.726562 26.320312 C 36.389562 26.320312 36.829813 26.418734 37.257812 26.802734 C 37.669812 27.174734 37.777344 27.732312 37.777344 28.320312 L 37.777344 31.654297 C 37.777344 32.319297 37.691672 32.772531 37.263672 33.144531 C 36.853672 33.531531 36.454563 33.654297 35.726562 33.654297 C 35.030563 33.654297 34.626219 33.530531 34.199219 33.144531 C 33.787219 32.754531 33.677734 32.318297 33.677734 31.654297 L 33.677734 28.320312 C 33.649734 27.412312 33.768313 27.140109 34.195312 26.787109 C 34.640312 26.432109 34.996562 26.320312 35.726562 26.320312 z M 39.142578 26.320312 L 40.509766 26.320312 L 40.509766 31.654297 C 40.509766 32.293297 41.049406 32.320312 41.191406 32.320312 C 41.317406 32.320312 41.868 32.109297 41.875 31.654297 L 41.875 26.320312 L 43.242188 26.320312 L 43.242188 33.654297 L 41.875 33.654297 L 41.875 32.986328 C 41.574 33.311328 41.205766 33.654297 40.509766 33.654297 C 39.813766 33.654297 39.142578 32.968313 39.142578 32.320312 L 39.142578 26.320312 z M 35.726562 27.654297 C 35.339563 27.654297 35.044922 27.777313 35.044922 28.320312 L 35.044922 31.654297 C 35.044922 32.312297 35.521563 32.320312 35.726562 32.320312 C 35.947563 32.320312 36.410156 32.300297 36.410156 31.654297 L 36.410156 28.320312 C 36.410156 27.652312 35.931562 27.654297 35.726562 27.654297 z M 26.042969 36.654297 L 46.380859 36.654297 C 47.130859 36.654297 47.851813 36.953375 48.382812 37.484375 C 48.913813 38.015375 49.210938 38.733375 49.210938 39.484375 L 49.210938 46.824219 C 49.210937 47.575219 48.913812 48.294219 48.382812 48.824219 C 47.851812 49.355219 47.131859 49.654297 46.380859 49.654297 L 26.042969 49.654297 C 25.292969 49.654297 24.572016 49.355219 24.041016 48.824219 C 23.510016 48.294219 23.212891 47.575219 23.212891 46.824219 L 23.212891 39.484375 C 23.212891 38.734375 23.510016 38.015375 24.041016 37.484375 C 24.572016 36.953375 25.291969 36.654297 26.042969 36.654297 z M 36.875 38.167969 L 36.875 47.654297 L 38.230469 47.654297 L 38.230469 46.976562 C 38.491469 47.282562 38.873937 47.661297 39.585938 47.654297 C 40.007938 47.650297 40.333781 47.310922 40.550781 47.044922 C 40.770781 46.774922 40.939453 46.462938 40.939453 45.960938 L 40.939453 41.894531 C 40.939453 41.309531 40.753578 40.914234 40.517578 40.615234 C 40.282578 40.316234 39.938047 40.160156 39.498047 40.160156 C 39.278047 40.160156 39.058844 40.221031 38.839844 40.332031 C 38.619844 40.441031 38.386469 40.634906 38.230469 40.878906 L 38.230469 38.167969 L 36.875 38.167969 z M 26.710938 38.169922 L 26.710938 39.523438 L 28.066406 39.523438 L 28.066406 47.654297 L 29.421875 47.654297 L 29.421875 39.523438 L 30.775391 39.523438 L 30.775391 38.169922 L 26.710938 38.169922 z M 31.453125 40.201172 L 31.453125 46.298828 C 31.453125 46.722828 31.635969 46.933719 31.792969 47.136719 C 31.966969 47.358719 32.339969 47.654297 32.667969 47.654297 C 32.934969 47.654297 33.219953 47.663859 33.501953 47.505859 C 33.783953 47.364859 33.913063 47.273562 34.164062 46.976562 L 34.164062 47.654297 L 35.519531 47.654297 L 35.519531 40.201172 L 34.164062 40.201172 L 34.164062 45.621094 C 34.041063 45.779094 34.036328 46.293828 33.486328 46.298828 C 32.990328 46.302828 32.808594 45.777094 32.808594 45.621094 L 32.808594 40.201172 L 31.453125 40.201172 z M 43.783203 40.201172 C 43.140203 40.201172 42.544516 40.358594 42.228516 40.683594 C 41.833516 41.088594 41.619141 41.541297 41.619141 42.154297 L 41.619141 45.345703 C 41.619141 46.038703 41.808969 46.574797 42.167969 46.966797 C 42.530969 47.358797 43.031781 47.546875 43.675781 47.546875 C 44.378781 47.546875 44.915766 47.371141 45.259766 46.994141 C 45.622766 46.633141 45.683594 46.085703 45.683594 45.345703 L 45.683594 44.943359 L 44.328125 44.943359 L 44.328125 45.283203 C 44.328125 45.692203 44.288359 46.005187 44.193359 46.117188 C 44.099359 46.241187 43.925391 46.295828 43.650391 46.298828 C 43.401391 46.301828 43.213141 46.232172 43.119141 46.076172 C 43.024141 45.934172 42.972656 45.691453 42.972656 45.314453 L 42.972656 44.265625 L 45.683594 44.265625 L 45.683594 42.154297 C 45.683594 41.478297 45.570656 41.058266 45.222656 40.697266 C 44.880656 40.336266 44.428203 40.201172 43.783203 40.201172 z M 38.90625 41.21875 C 39.28025 41.21875 39.583984 41.556375 39.583984 42.234375 L 39.583984 45.636719 C 39.583984 46.010719 39.28025 46.298828 38.90625 46.298828 C 38.53225 46.298828 38.234516 46.155938 38.228516 45.960938 L 38.228516 41.894531 C 38.234516 41.554531 38.53225 41.21875 38.90625 41.21875 z M 43.650391 41.556641 C 44.024391 41.556641 44.326172 41.817375 44.326172 42.234375 L 44.326172 42.910156 L 42.972656 42.910156 L 42.972656 42.234375 C 42.978656 41.871375 43.276391 41.556641 43.650391 41.556641 z"></path>
</svg>